<svg version="1.2" xmlns="http://www.w3.org/2000/svg" viewBox="0 0 136 45" width="136" height="45">
	<title>Снимок экрана 2023-04-26 в 22</title>
	<style>
		.s0 { fill: #f5bd4c } 
		.s1 { fill: #ffffff } 
		.s2 { fill: #ffffff;stroke: #ffffff } 
		.s3 { fill: none;stroke: #ffffff } 
	</style>
	<path id="Layer" fill-rule="evenodd" class="s0" d="m9.7 3.2h6.4l7.8 24.9h-5.3l-1.9-6.6h-7.9l-2 6.6h-5.1zm5.8 14.3l-2.7-9.4h-0.2l-2.7 9.4z"/>
	<path id="Layer" class="s0" d="m25.6 27.8v-4.6q5.7 1 7.8 1 4.3 0 4.3-2.6v-1.6q0-1.2-0.6-1.8-0.6-0.7-2.2-0.7h-2.6q-7.1 0-7.1-6.5v-1.8q0-3.3 2.4-4.8 2.3-1.5 7.5-1.5 2.7 0 6.8 0.5v4.4q-5.1-0.7-7-0.7-2.6 0-3.5 0.5-1 0.5-1 1.7v1.7q0 2 2.9 2h2.6q3.7 0 5.4 1.6 1.6 1.5 1.6 4.7v1.7q0 4.4-2.7 6-1.4 0.8-3 1.1-1.6 0.4-3.9 0.4-3.1 0-7.7-0.7z"/>
	<path id="Layer" class="s0" d="m57 2.9q-0.3 0-0.5 0 0 0.1 0.2 0.1h0.7c-0.2 0-0.3 0.2-0.3 0.4v0.5c0 0.2 0.1 0.3 0.3 0.3h0.3c0.2 0 0.4-0.1 0.4-0.3v-0.5c0-0.2-0.2-0.4-0.4-0.4h0.7q0.2 0 0.2-0.1-0.8 0-1.6 0zm0.2 1.7v0.5c0 0.2 0.2 0.4 0.4 0.4 0.1 0 0.3-0.2 0.3-0.4v-0.5c0-0.2-0.2-0.4-0.3-0.4-0.2 0-0.4 0.2-0.4 0.4zm0.6 2.1c0.2 0 0.3-0.2 0.3-0.3v-0.5c0-0.2-0.2-0.4-0.4-0.4h-0.3c-0.2 0-0.3 0.2-0.3 0.4v0.5c0 0.1 0.1 0.3 0.2 0.3q-0.1 0.1-0.3 0.4 0.6 0 1.3 0-0.2-0.2-0.5-0.4z"/>
	<path id="Layer" class="s0" d="m65.9 14v12.8q-1.7 0.7-4.3 1.2-2.5 0.5-4.7 0.5-1.9 0-3.3-0.2-1.5-0.2-2.9-0.7-1.5-0.4-2.4-1.2-1-0.8-1.6-2.1-0.6-1.3-0.6-3v-10.4q0-1.8 0.7-3.4 0.6-1.5 1.8-2.3 1-0.9 2.5-1.4 1.5-0.6 2.9-0.8 1.1-0.1 2.5-0.1 0 0.1 0.2 0.1h0.7c-0.2 0-0.3 0.2-0.3 0.4v0.4c0 0.3 0.1 0.4 0.3 0.4h0.2c-0.2 0-0.4 0.2-0.4 0.4v0.5c0 0.2 0.2 0.4 0.4 0.4 0.1 0 0.3-0.2 0.3-0.4v-0.5c0-0.2-0.2-0.4-0.3-0.4h0.1c0.2 0 0.4-0.1 0.4-0.4v-0.4c0-0.2-0.2-0.4-0.4-0.4h0.7q0.2 0 0.2-0.1 3.7 0.1 7.2 0.8v4.5q-3.4-1-7.5-1.1-0.2-0.2-0.5-0.4c0.2 0 0.3-0.2 0.3-0.3v-0.5c0-0.2-0.2-0.4-0.4-0.4h-0.3c-0.2 0-0.3 0.2-0.3 0.4v0.5c0 0.1 0.1 0.3 0.2 0.3q-0.1 0.1-0.3 0.4-5.7 0-5.7 3.8v9.9q0 1.9 1.5 2.6 1.5 0.8 4.6 0.8 1.7 0 3.5-0.6v-5.7h-3.5v-3.9z"/>
	<path id="Layer" fill-rule="evenodd" class="s0" d="m90 28.1h-5.2l-2-6.6h-7.9l-1.9 6.6h-5.2l8.1-24.9h6.3zm-8.3-10.5l-2.8-9.3h-0.1l-2.8 9.3z"/>
	<path id="Layer" fill-rule="evenodd" class="s0" d="m92.5 3.2h9.7q4.4 0 6.3 1.2 1.9 1.2 1.9 4.1v4.3q0 2.2-1.3 3.5-1.4 1.2-3.6 1.6l6.3 10.2h-6l-5.7-9.8h-2.4v9.8h-5.2zm9.6 11.1q1.9 0 2.6-0.5 0.6-0.6 0.6-2.2v-1.8q0-1.4-0.7-1.9-0.7-0.5-2.5-0.5h-4.4v6.9h4.4z"/>
	<path id="Layer" fill-rule="evenodd" class="s0" d="m124 3.2q3.8 0 6 0.7 2.2 0.7 3.3 2.3 1 1.7 1 4.6v10.1q0 2.8-1 4.4-0.9 1.5-3.1 2.1-2.3 0.7-6.2 0.7h-9.2v-24.9zm-0.2 20.6q2.1 0 3.2-0.2 1.1-0.2 1.6-0.8 0.5-0.6 0.5-1.9v-10.2q0-1.8-1.3-2.5-1.2-0.7-3.9-0.7h-3.9v16.3z"/>
	<path id="Layer" class="s1" d="m5.3 34.3l0.2 5.7v2.7h-1.4v-8.4h1.2zm0.6 0l2.3 6.4 2.3-6.4h1.3l-3.1 8.4h-1l-3-8.4zm6.4 0v8.4h-1.4v-2.7l0.2-5.7z"/>
	<path id="Layer" class="s1" d="m15.2 34.3l0.2 5.7v2.7h-1.4v-8.4h1.2zm0.7 0l2.3 6.4 2.3-6.4h1.2l-3 8.4h-1l-3.1-8.4zm6.4 0v8.4h-1.4v-2.7l0.2-5.7z"/>
	<path id="Layer" class="s1" d="m24.7 42.7h-1.5l3.1-8.4h0.9l-0.1 1.2zm4.3-1.9h-4.4v-1.2h4.4zm-2.3-5.3l-0.1-1.2h0.9l3.1 8.4h-1.5z"/>
	<path id="Layer" class="s1" d="m35.4 44.2h-0.9v-9.9h0.9z"/>
	<path id="Layer" fill-rule="evenodd" class="s1" d="m41 42.6q-0.6-0.1-0.9-0.6-0.3-0.5-0.3-1.5v-2.4q0-1 0.3-1.7 0.3-0.7 0.9-1.1 0.5-0.3 1.4-0.6l0.5-0.1q0.5-0.2 1.1-0.3 0.5-0.2 0.9-0.3v1.4q-0.6 0.4-2.2 0.7-0.7 0.2-1.1 0.4-0.4 0.2-0.5 0.5-0.2 0.4-0.2 1v0.6q0.1-0.7 0.6-1 0.5-0.3 1.6-0.3 0.9 0 1.4 0.2 0.5 0.3 0.7 0.8 0.1 0.5 0.1 1.4v0.8q0 0.8-0.2 1.3-0.2 0.5-0.8 0.7-0.6 0.3-1.7 0.3-1 0-1.6-0.2zm2.3-1q0.2-0.1 0.3-0.3 0.1-0.2 0.1-0.5v-1.5q0-0.4-0.1-0.6-0.1-0.2-0.3-0.3-0.2-0.1-0.7-0.1-0.5 0-0.7 0.1-0.3 0.1-0.4 0.3 0 0.3 0 0.7v1.4q0 0.3 0 0.5 0.1 0.2 0.4 0.3 0.2 0.1 0.7 0.1 0.5 0 0.7-0.1z"/>
	<path id="Layer" class="s1" d="m46.7 34.9h1.6v1.4h-1.6zm0 2.1h1.6v5.7h-1.6z"/>
	<path id="Layer" class="s1" d="m49.8 37h1.7v3.7l2.2-3.7h1.6v5.7h-1.6v-3.9l-2.2 3.9h-1.7zm1.3-1.2q-0.5-0.5-0.5-1.3h1.2q0 0.5 0.2 0.7 0.2 0.3 0.6 0.3 0.4 0 0.5-0.3 0.2-0.2 0.3-0.7h1.1q0.1 0.8-0.5 1.3-0.5 0.5-1.4 0.5-0.9 0-1.5-0.5z"/>
	<path id="Layer" class="s1" d="m61.3 42.7h-4.5v-5.7h1.6v4.6h1.8v-4.6h1.6v4.5h0.9v2.7h-1.4z"/>
	<path id="Layer" class="s1" d="m63.7 34.9h1.7v1.4h-1.7zm0 2.1h1.7v5.7h-1.7z"/>
	<path id="Layer" fill-rule="evenodd" class="s1" d="m69.9 37q0.9 0 1.4 0.1 0.4 0.2 0.5 0.5 0.2 0.3 0.2 0.8v0.2q0 0.4-0.3 0.6-0.2 0.3-0.7 0.4 0.6 0.1 0.9 0.4 0.4 0.3 0.4 0.8v0.4q0 0.7-0.6 1.1-0.5 0.4-1.8 0.4h-3v-5.7zm-0.6 2.2q0.4 0 0.6 0 0.3-0.1 0.3-0.2 0.1-0.1 0.1-0.4v-0.1q0-0.3-0.2-0.4-0.2-0.1-0.9-0.1h-0.8v1.2h0.9zm0 2.4q0.7 0 1-0.1 0.3-0.2 0.3-0.5v-0.2q0-0.2-0.1-0.4-0.1-0.1-0.4-0.1-0.2-0.1-0.7-0.1h-0.9v1.4z"/>
	<path id="Layer" class="s1" d="m75.4 42.8q-0.2 0-0.6-0.1-0.3 0-0.6-0.2-0.2-0.1-0.4-0.3-0.5-0.4-0.5-1.4v-1.9q0-0.8 0.3-1.3 0.2-0.2 0.4-0.3 0.2-0.2 0.5-0.3 0.2 0 0.5-0.1 0.4 0 0.6 0h0.6q0.7 0 1.7 0.2v1.1q-1.2-0.3-1.8-0.3-1.1 0-1.1 0.8v2.1q0 0.9 1.2 0.9 0.6 0 1.8-0.2v1.1q-1 0.2-1.9 0.2-0.4 0-0.7 0z"/>
	<path id="Layer" fill-rule="evenodd" class="s1" d="m78.9 37h1.7v1.9h0.6q1.2 0 1.7 0.1 0.6 0.1 0.8 0.5 0.2 0.3 0.2 1v0.7q0 0.8-0.6 1.1-0.7 0.4-2.1 0.4h-2.3zm2.3 4.6q0.4 0 0.6-0.1 0.2 0 0.3-0.2 0.1-0.1 0.1-0.4v-0.3q0-0.3-0.1-0.4-0.1-0.2-0.3-0.2-0.2 0-0.6 0h-0.6v1.6h0.6z"/>
	<path id="Layer" class="s1" d="m85.1 37h1.7v2.3q0.2 0 0.3-0.1 0.1 0 0.2-0.2l1.6-2h1.7l-2.2 2.6q0.5 0.2 0.9 0.9l1.5 2.2h-1.9l-1.2-1.9q-0.2-0.3-0.4-0.4-0.2-0.1-0.5-0.1v2.4h-1.7z"/>
	<path id="Layer" class="s1" d="m91.5 37h1.7v3.7l2.2-3.7h1.6v5.7h-1.6v-3.9l-2.2 3.9h-1.7v-5.7z"/>
	<path id="Layer" class="s1" d="m98.5 37h1.6v3.7l2.2-3.7h1.6v5.7h-1.6v-3.9l-2.2 3.9h-1.6zm1.3-1.2q-0.6-0.5-0.5-1.3h1.1q0.1 0.5 0.2 0.7 0.2 0.3 0.6 0.3 0.4 0 0.6-0.3 0.2-0.2 0.2-0.7h1.2q0 0.8-0.5 1.3-0.6 0.5-1.5 0.5-0.9 0-1.4-0.5z"/>
	<path id="Layer" class="s1" d="m108.2 37h1.7v2.3q0.2 0 0.3-0.1 0.1 0 0.2-0.2l1.6-2h1.7l-2.2 2.6q0.5 0.2 0.9 0.9l1.5 2.2h-1.9l-1.2-1.9q-0.2-0.3-0.4-0.4-0.2-0.1-0.5-0.1v2.4h-1.7z"/>
	<path id="Layer" class="s1" d="m114.3 42.7v-1.3q0.1 0 0.2 0 0.5 0 0.7-0.2 0.3-0.3 0.4-1.1 0.2-0.8 0.2-2.3v-0.8h4.3v5.7h-1.7v-4.6h-1.2v0.1q0 1.8-0.4 2.8-0.3 1-0.8 1.4-0.5 0.4-1.1 0.4-0.3 0-0.6-0.1z"/>
	<path id="Layer" class="s1" d="m123.1 42.6l-2.2-5.6h1.8l1.2 4 1.2-4h1.7l-3 8.1h-1.7z"/>
	<path id="Layer" fill-rule="evenodd" class="s1" d="m128.7 42.6q-0.5-0.1-0.9-0.6-0.3-0.5-0.3-1.5v-2.4q0-1 0.3-1.7 0.4-0.7 0.9-1.1 0.6-0.3 1.4-0.6l0.5-0.1q0.5-0.2 1.1-0.3 0.5-0.2 0.9-0.3v1.4q-0.6 0.4-2.2 0.7-0.7 0.2-1.1 0.4-0.3 0.2-0.5 0.5-0.2 0.4-0.2 1v0.6q0.1-0.7 0.6-1 0.5-0.3 1.6-0.3 0.9 0 1.4 0.2 0.5 0.3 0.7 0.8 0.1 0.5 0.1 1.4v0.8q0 0.8-0.2 1.3-0.2 0.5-0.8 0.7-0.6 0.3-1.7 0.3-1 0-1.6-0.2zm2.3-1q0.2-0.1 0.3-0.3 0.1-0.2 0.1-0.5v-1.5q0-0.4-0.1-0.6-0.1-0.2-0.3-0.3-0.2-0.1-0.7-0.1-0.5 0-0.7 0.1-0.3 0.1-0.4 0.3 0 0.3 0 0.7v1.4q0 0.3 0 0.5 0.1 0.2 0.4 0.3 0.2 0.1 0.7 0.1 0.5 0 0.7-0.1z"/>
	<path id="Layer" fill-rule="evenodd" class="s1" d="m87.6 29c-0.1 0.9-0.1 1.3-0.4 1.5-0.2 0.3-0.6 0.4-1 0.3-0.1-0.1-0.3-0.1-0.5-0.3 0-0.1-0.2-0.3 0.1-1.5 0.2-0.7 0.3-0.9 0.2-1.2 0-0.1-0.1-0.1-0.3-0.7-0.2-0.4-0.3-0.6-0.3-0.7-0.3-0.6-0.9-0.9-2-1.5-0.8-0.5-0.9-0.5-1.2-0.7-0.6-0.5-0.9-1-1.1-1.4-0.2 0-0.7 0-1.2-0.1 0 0-0.2 0-0.2-0.2-0.1-0.1-0.1-0.3-0.1-0.3 0-0.2-0.2-1.1-1-3.5q-0.1 0-0.2 0c-0.6 0.6-0.6 0.8-0.7 1.1-0.1 0.2-0.3 0.4-0.7 0.9-0.1 0.2-0.1 0.2-0.3 0.3-0.1 0-0.8-0.4-1.1 0-0.8 0.7-0.7 0.6-0.9 0.9-0.1 0.1-0.4 0.5-0.4 0.6 0 0.7 0.3 1.1 0.2 1.6-0.1 0.2-0.1 0.1-0.2 0.4-0.3 0.6-0.2 0.3-0.5 1.2-0.1 0.6-0.1 0.9 0 1.5 0 0.1 0.1 0.3 0.1 0.5 0.1 0.3 0 0.5 0 0.5-0.2 0.3-0.5 0.4-0.9 0.6-0.9 0.3-1 0.6-1.7 0.7-0.3 0.1-0.6 0.1-0.9 0 0 0-0.3-0.1-0.3-0.3-0.1-0.2 0.1-0.4 0.3-0.6 0.7-0.7 1.3-1.2 1.3-1.2 0.3-0.3 0.5-0.4 0.6-0.7 0-0.2 0-0.2 0-0.5 0.1-0.3 0.2-0.4 0.3-0.6 0-0.2 0-0.3-0.1-0.4-0.1-0.4-0.1-1-0.1-2 0-0.6 0-1 0.1-1.3 0.1-0.5 0.4-0.9 0.4-0.9 0.2-0.3 0.3-0.5 0.5-0.8 0-0.2 0-0.3 0-0.4 0.1-0.4 0.2-0.6 0.4-1.1 0.7-1.4 0.7-1.3 0.8-1.4 0.4-0.8 0.6-0.7 0.8-1.2 0.1-0.3 0-0.4 0.2-1.2 0.1-0.4 0.2-0.6 0.2-0.8 0.3-0.4 0.5-0.4 0.8-0.9q0.1-0.2 0.2-0.5c0.2-0.4 0.2-0.8 0.1-1q-0.3-0.4-0.7-0.8c-0.3 0.2-1 0.7-1.8 0.9-0.2 0.1-0.4 0.1-0.7 0.1-0.3 0-0.5-0.2-0.7-0.3-0.7-0.5-0.8-0.3-2.3-1.2q-0.3-0.2-0.7-0.5c0 0-0.1 0.3-0.3 0.3q-0.1 0-0.2-0.1c-0.2-0.2-0.2-0.3-0.4-0.3 0 0-0.1 0-0.2 0.1 0 0-0.3 0.1-0.7 0.2-0.4 0-0.8-0.4-0.8-0.4-0.2-0.2-0.2-0.5-0.3-0.7 0 0-0.1-0.8 0.5-1.4 0.1-0.2 0.4-0.4 0.7-0.5 0.3 0 0.6 0.2 0.8 0.4 0.5 0.4 0.5 0.5 0.9 0.7 0 0.1 0.3 0.1 0.4 0.2q0.1 0 0.1 0 0.1 0.2 0 0.3 0.3 0.1 0.8 0.3c0.6 0.1 0.9 0.2 1 0.3 0.4 0.1 0.8 0.3 1.4 0.8q0 0 0.1-0.1c0.1 0 0.3-0.1 0.5-0.4q0.2-0.1 0.4-0.5-0.2-0.2-0.3-0.3-0.1 0-0.2 0 0 0-0.1 0c-0.2-0.3-0.4-0.4-0.4-0.5-0.2-0.2-0.3-0.2-0.4-0.3q-0.2-0.1-0.3-0.2c-0.2-0.1-0.3 0-0.4-0.1-0.1-0.1-0.2-0.2-0.4-0.4-0.3-0.3-0.3-0.3-0.3-0.4 0-0.1 0-0.2 0.1-0.3q0.3-0.3 0.5-0.7c0.2-0.4 0.3-0.4 0.4-0.5q0.2-0.1 0.3-0.1c0.2 0 0.4 0 0.5 0.1 0.1-0.1 0.2-0.3 0.5-0.2 0.2 0 0.3 0.2 0.3 0.3 0.2 0.2 0.1 0.3 0.1 0.7 0 0.1 0.2 0.4 0.4 1 0.2 0.3 0.2 0.3 0.2 0.4 0.1 0 0.1 0.1 0.1 0.2 0 0 0 0.1-0.1 0.1q0.1 0 0.2 0.1 0-0.1 0.2-0.3c0.2-0.1 0.3-0.2 0.4-0.3 0-0.1-0.1-0.3-0.1-0.6 0 0 0-0.6 0.4-1 0.4-0.3 0.8-0.4 0.8-0.4 0-0.1 0.2-0.1 0.2-0.2 0 0-0.1 0-0.2 0-0.1-0.1-0.2 0-0.2 0-0.4 0.2-0.4 0.2-0.5 0.2-0.2 0-0.3 0.1-0.5 0-0.1 0-0.2-0.1-0.2-0.2-0.1-0.1 0-0.2-0.1-0.2-0.1-0.1-0.2-0.1-0.2-0.2 0 0 0-0.1 0-0.1 0 0-0.1 0-0.1-0.1q0 0 0-0.1c0-0.2 0-0.2 0-0.2-0.1-0.1-0.1 0-0.2-0.1 0 0-0.1 0-0.1-0.1-0.1-0.1 0-0.2 0.1-0.4 0 0 0-0.2 0-0.4-0.1-0.1-0.3-0.1-0.3-0.2-0.1-0.8-0.1-1.2 0.4-2 0.3-0.5 0.9-0.5 1.1-0.5 0.2-0.1 0.8-0.2 1.5 0.1 0.1 0.1 0.5 0.3 0.7 0.8 0.2 0.4 0.1 0.5 0.2 1.2 0.1 0.4 0.2 0.8 0.5 1.2 0.4 0.4 0.7 0.2 1.6 0.7 0.4 0.2 0.9 0.4 1.3 1 0.2 0.4 0.3 0.8 0.3 1.4 0 0.5 0 1-0.2 2.1-0.1 0.7-0.1 0.8-0.4 2.2-0.2 1.1-0.3 1.4-0.2 1.9 0.1 0.5 0.2 0.1 0.4 0.7 0.3 0.9 0.2 1.9 0.4 3 0.1 1.3 0.4 1 0.5 2.2 0 0 0.1 0.3 0.3 1.3 0.1 0.7 0 1.2 0.1 1.4 0.2 0.2 0.3 0.8 0.4 0.8 0.7 0.3 1.6 1 1.7 1.2 0.3 0.8 0.3 0.8 0.6 1.3 0.3 0.4 0.3 0.5 0.8 1 0.4 0.5 0.6 1 0.7 1.3 0.1 0.5 0.1 0.9 0.1 1.6zm-5.9-11.5l-2.7-9.3h-0.2l-2.7 9.3z"/>
	<path id="Layer" class="s1" d="m57.4 17.9h2.5c-0.3 0.2-0.7 0.5-1.1 0.6-0.9 0.3-2.4 0.3-3.1-0.1-1.3-0.5-2.1-2.1-2.2-3.4 0-1.1 0-1.4 0.6-2.7 0.7-1.5 0.9-1.7 1.4-2.6 0.4-0.7 0.5-1.1 1-2q0.3-0.4 0.5-0.6 0.2-0.3 0.3-0.4 0.2 0 0.3 0 0.1 0 0.2 0 0.3 0.2 0.5 0.4c0.2 0.2 0.3 0.4 0.4 0.6 0.5 1 0.5 1.1 1.1 2 0.8 1.5 1 1.8 1.4 2.7q0.3 0.7 0.3 1.6h-4.1z"/>
	<path id="Layer" class="s2" d="m58.7 2.7q0 0.1-0.1 0.2 0 0.1-0.2 0.1h-1.7q-0.2 0-0.2-0.1-0.1-0.1-0.1-0.2c0-0.1 0.1-0.3 0.3-0.3h1.7c0.2 0 0.3 0.2 0.3 0.3z"/>
	<path id="Layer" class="s3" d="m58.1 3.4v0.5c0 0.2-0.2 0.3-0.4 0.3h-0.3c-0.2 0-0.3-0.1-0.3-0.3v-0.5c0-0.2 0.1-0.4 0.3-0.4h0.3c0.2 0 0.4 0.2 0.4 0.4z"/>
	<path id="Layer" class="s3" d="m57.9 4.6v0.5c0 0.2-0.2 0.4-0.3 0.4-0.2 0-0.4-0.2-0.4-0.4v-0.5c0-0.2 0.2-0.4 0.4-0.4 0.1 0 0.3 0.2 0.3 0.4z"/>
	<path id="Layer" class="s3" d="m58.1 5.9v0.5c0 0.1-0.1 0.3-0.3 0.3q-0.1 0.1-0.1 0.1h-0.3q0 0-0.1-0.1c-0.1 0-0.2-0.2-0.2-0.3v-0.5c0-0.2 0.1-0.4 0.3-0.4h0.3c0.2 0 0.4 0.2 0.4 0.4z"/>
</svg>